<?xml version="1.0" standalone="no"?>
<!DOCTYPE svg PUBLIC "-//W3C//DTD SVG 20010904//EN"
 "http://www.w3.org/TR/2001/REC-SVG-20010904/DTD/svg10.dtd">
<svg version="1.0" xmlns="http://www.w3.org/2000/svg"
 width="1920.000000pt" height="1080.000000pt" viewBox="0 0 1920.000000 1080.000000"
 preserveAspectRatio="xMidYMid meet">

<g transform="translate(0.000000,1080.000000) scale(0.100000,-0.100000)"
fill="#000000" stroke="none">
<path d="M9255 7494 c-325 -35 -678 -154 -947 -321 -90 -56 -288 -199 -288
-208 0 -3 33 19 73 48 297 220 633 362 1002 424 167 28 515 25 687 -5 161 -29
288 -69 458 -144 311 -137 527 -284 735 -499 78 -81 78 -81 13 -22 -328 299
-711 492 -1155 582 -601 121 -1075 30 -1535 -298 -108 -76 -125 -98 -26 -32
78 52 236 134 333 174 315 130 698 163 1080 92 264 -49 440 -106 660 -215 409
-201 705 -482 912 -865 45 -84 118 -235 144 -301 12 -29 12 -28 28 35 l17 65
22 -76 c61 -209 89 -565 62 -782 -40 -334 -173 -671 -378 -966 l-24 -35 26 30
c42 48 131 177 187 270 201 342 295 739 260 1110 -48 503 -249 955 -581 1299
-163 169 -298 265 -555 394 -224 113 -461 191 -691 228 -95 16 -431 27 -519
18z m1826 -821 c13 -16 12 -17 -3 -4 -10 7 -18 15 -18 17 0 8 8 3 21 -13z"/>
<path d="M7825 6603 c-144 -182 -285 -437 -358 -648 -70 -204 -114 -490 -105
-692 4 -90 3 -94 -8 -56 -24 82 -37 234 -31 367 12 295 121 652 280 919 64
108 41 87 -29 -26 -180 -289 -287 -667 -288 -1012 0 -156 15 -239 90 -497 91
-317 124 -408 200 -558 130 -258 247 -413 434 -574 257 -221 564 -381 897
-467 166 -42 271 -52 478 -45 269 9 481 39 732 106 204 53 367 137 571 294
105 81 155 129 67 65 -244 -177 -406 -255 -641 -308 -441 -98 -827 -117 -1074
-53 -270 70 -567 200 -780 343 -171 114 -386 328 -486 484 -10 16 29 -18 88
-77 170 -170 367 -320 623 -473 198 -120 386 -201 571 -250 104 -27 133 -23
152 20 10 22 9 23 -63 34 -139 20 -366 106 -565 214 -138 74 -378 220 -445
270 -253 190 -506 500 -596 732 -74 189 -103 372 -103 630 2 485 117 855 385
1233 33 45 57 82 54 82 -3 0 -25 -26 -50 -57z"/>
<path d="M11410 5856 c0 -12 29 -76 35 -76 3 0 -2 17 -10 37 -16 38 -25 52
-25 39z"/>
</g>
</svg>
